<svg width="24" height="24" viewBox="0 0 24 24" fill="none" xmlns="http://www.w3.org/2000/svg">
<mask id="mask0_14_26" style="mask-type:luminance" maskUnits="userSpaceOnUse" x="2" y="1" width="21" height="22">
<path fill-rule="evenodd" clip-rule="evenodd" d="M2 1.0002H22.4998V22.5052H2V1.0002Z" fill="white"/>
</mask>
<g mask="url(#mask0_14_26)">
<path fill-rule="evenodd" clip-rule="evenodd" d="M13.7168 15.2913C14.9208 15.2913 15.9008 16.2643 15.9008 17.4603V20.5363C15.9008 20.7933 16.1068 20.9993 16.3708 21.0053H18.2768C19.7788 21.0053 20.9998 19.7993 20.9998 18.3173V9.5933C20.9928 9.0833 20.7498 8.6033 20.3328 8.2843L13.7398 3.0263C12.8548 2.3253 11.6168 2.3253 10.7288 3.0283L4.18082 8.2823C3.74782 8.6113 3.50482 9.0913 3.49982 9.6103V18.3173C3.49982 19.7993 4.72082 21.0053 6.22282 21.0053H8.14682C8.41782 21.0053 8.63782 20.7903 8.63782 20.5263C8.63782 20.4683 8.64482 20.4103 8.65682 20.3553V17.4603C8.65682 16.2713 9.63082 15.2993 10.8258 15.2913H13.7168ZM18.2768 22.5053H16.3528C15.2508 22.4793 14.4008 21.6143 14.4008 20.5363V17.4603C14.4008 17.0913 14.0938 16.7913 13.7168 16.7913H10.8308C10.4618 16.7933 10.1568 17.0943 10.1568 17.4603V20.5263C10.1568 20.6013 10.1468 20.6733 10.1258 20.7413C10.0178 21.7313 9.17182 22.5053 8.14682 22.5053H6.22282C3.89382 22.5053 1.99982 20.6263 1.99982 18.3173V9.6033C2.00982 8.6093 2.46782 7.6993 3.25882 7.1003L9.79382 1.8553C11.2328 0.715296 13.2378 0.715296 14.6738 1.8533L21.2558 7.1033C22.0288 7.6923 22.4868 8.6003 22.4998 9.5823V18.3173C22.4998 20.6263 20.6058 22.5053 18.2768 22.5053Z" fill="#130F26"/>
</g>
</svg>
